<svg version="1.1" xmlns="http://www.w3.org/2000/svg" xmlns:xlink="http://www.w3.org/1999/xlink" width="165.80517578125" height="269"><defs/><g><text fill="#eeeeee" stroke="none" font-family="Arial" font-size="24px" font-style="normal" font-weight="normal" text-decoration="none" x="0" y="0">UNREGISTERED</text><text fill="#eeeeee" stroke="none" font-family="Arial" font-size="24px" font-style="normal" font-weight="normal" text-decoration="none" x="0" y="30">UNREGISTERED</text><text fill="#eeeeee" stroke="none" font-family="Arial" font-size="24px" font-style="normal" font-weight="normal" text-decoration="none" x="0" y="60">UNREGISTERED</text><text fill="#eeeeee" stroke="none" font-family="Arial" font-size="24px" font-style="normal" font-weight="normal" text-decoration="none" x="0" y="90">UNREGISTERED</text><text fill="#eeeeee" stroke="none" font-family="Arial" font-size="24px" font-style="normal" font-weight="normal" text-decoration="none" x="0" y="120">UNREGISTERED</text><text fill="#eeeeee" stroke="none" font-family="Arial" font-size="24px" font-style="normal" font-weight="normal" text-decoration="none" x="0" y="150">UNREGISTERED</text><text fill="#eeeeee" stroke="none" font-family="Arial" font-size="24px" font-style="normal" font-weight="normal" text-decoration="none" x="0" y="180">UNREGISTERED</text><text fill="#eeeeee" stroke="none" font-family="Arial" font-size="24px" font-style="normal" font-weight="normal" text-decoration="none" x="0" y="210">UNREGISTERED</text><text fill="#eeeeee" stroke="none" font-family="Arial" font-size="24px" font-style="normal" font-weight="normal" text-decoration="none" x="0" y="240">UNREGISTERED</text><g transform="translate(-10,-10) scale(1,1)"><rect fill="#C0C0C0" stroke="none" x="71.2012939453125" y="27" width="19.599999999999994" height="15" opacity="0.2"/></g><g transform="translate(-10,-10) scale(1,1)"><rect fill="#C0C0C0" stroke="none" x="71.2012939453125" y="41" width="49" height="25" opacity="0.2"/></g><g transform="translate(-10,-10) scale(1,1)"><rect fill="#ffffff" stroke="none" x="64.2012939453125" y="35" width="49" height="24"/></g><g transform="translate(-10,-10) scale(1,1)"><path fill="none" stroke="#000000" d="M 64.2012939453125 35 L 113.2012939453125 35 L 113.2012939453125 59 L 64.2012939453125 59 L 64.2012939453125 35 Z Z" stroke-miterlimit="10"/></g><g transform="translate(-10,-10) scale(1,1)"><rect fill="#ffffff" stroke="none" x="64.2012939453125" y="20" width="19.599999999999994" height="15"/></g><g transform="translate(-10,-10) scale(1,1)"><path fill="none" stroke="#000000" d="M 64.2012939453125 20 L 83.8012939453125 20 L 83.8012939453125 35 L 64.2012939453125 35 L 64.2012939453125 20 Z Z" stroke-miterlimit="10"/></g><g transform="translate(-10,-10) scale(1,1)"><rect fill="#ffffff" stroke="none" x="64.2012939453125" y="34" width="49" height="25"/></g><g transform="translate(-10,-10) scale(1,1)"><path fill="none" stroke="#000000" d="M 64.2012939453125 34 L 113.2012939453125 34 L 113.2012939453125 59 L 64.2012939453125 59 L 64.2012939453125 34 Z Z" stroke-miterlimit="10"/></g><g transform="translate(-10,-10) scale(1,1)"><g><path fill="none" stroke="none"/><text fill="#000000" stroke="none" font-family="Arial" font-size="13px" font-style="normal" font-weight="bold" text-decoration="none" x="76.4154052734375" y="54.5">tech</text></g></g><g transform="translate(-10,-10) scale(1,1)"><rect fill="#C0C0C0" stroke="none" x="67.7308349609375" y="97" width="24.973828124999997" height="15" opacity="0.2"/></g><g transform="translate(-10,-10) scale(1,1)"><rect fill="#C0C0C0" stroke="none" x="67.7308349609375" y="111" width="62.4345703125" height="25" opacity="0.2"/></g><g transform="translate(-10,-10) scale(1,1)"><rect fill="#ffffff" stroke="none" x="60.7308349609375" y="105" width="62.4345703125" height="24"/></g><g transform="translate(-10,-10) scale(1,1)"><path fill="none" stroke="#000000" d="M 60.7308349609375 105 L 123.1654052734375 105 L 123.1654052734375 129 L 60.7308349609375 129 L 60.7308349609375 105 Z Z" stroke-miterlimit="10"/></g><g transform="translate(-10,-10) scale(1,1)"><rect fill="#ffffff" stroke="none" x="60.7308349609375" y="90" width="24.973828124999997" height="15"/></g><g transform="translate(-10,-10) scale(1,1)"><path fill="none" stroke="#000000" d="M 60.7308349609375 90 L 85.7046630859375 90 L 85.7046630859375 105 L 60.7308349609375 105 L 60.7308349609375 90 Z Z" stroke-miterlimit="10"/></g><g transform="translate(-10,-10) scale(1,1)"><rect fill="#ffffff" stroke="none" x="60.7308349609375" y="104" width="62.4345703125" height="25"/></g><g transform="translate(-10,-10) scale(1,1)"><path fill="none" stroke="#000000" d="M 60.7308349609375 104 L 123.1654052734375 104 L 123.1654052734375 129 L 60.7308349609375 129 L 60.7308349609375 104 Z Z" stroke-miterlimit="10"/></g><g transform="translate(-10,-10) scale(1,1)"><g><path fill="none" stroke="none"/><text fill="#000000" stroke="none" font-family="Arial" font-size="13px" font-style="normal" font-weight="bold" text-decoration="none" x="67.3731689453125" y="124.5">noetzold</text></g></g><g transform="translate(-10,-10) scale(1,1)"><rect fill="#C0C0C0" stroke="none" x="61.2213134765625" y="167" width="30.181445312500003" height="15" opacity="0.2"/></g><g transform="translate(-10,-10) scale(1,1)"><rect fill="#C0C0C0" stroke="none" x="61.2213134765625" y="181" width="75.45361328125" height="25" opacity="0.2"/></g><g transform="translate(-10,-10) scale(1,1)"><rect fill="#ffffff" stroke="none" x="54.2213134765625" y="175" width="75.45361328125" height="24"/></g><g transform="translate(-10,-10) scale(1,1)"><path fill="none" stroke="#000000" d="M 54.2213134765625 175 L 129.6749267578125 175 L 129.6749267578125 199 L 54.2213134765625 199 L 54.2213134765625 175 Z Z" stroke-miterlimit="10"/></g><g transform="translate(-10,-10) scale(1,1)"><rect fill="#ffffff" stroke="none" x="54.2213134765625" y="160" width="30.181445312500003" height="15"/></g><g transform="translate(-10,-10) scale(1,1)"><path fill="none" stroke="#000000" d="M 54.2213134765625 160 L 84.4027587890625 160 L 84.4027587890625 175 L 54.2213134765625 175 L 54.2213134765625 160 Z Z" stroke-miterlimit="10"/></g><g transform="translate(-10,-10) scale(1,1)"><rect fill="#ffffff" stroke="none" x="54.2213134765625" y="174" width="75.45361328125" height="25"/></g><g transform="translate(-10,-10) scale(1,1)"><path fill="none" stroke="#000000" d="M 54.2213134765625 174 L 129.6749267578125 174 L 129.6749267578125 199 L 54.2213134765625 199 L 54.2213134765625 174 Z Z" stroke-miterlimit="10"/></g><g transform="translate(-10,-10) scale(1,1)"><g><path fill="none" stroke="none"/><text fill="#000000" stroke="none" font-family="Arial" font-size="13px" font-style="normal" font-weight="bold" text-decoration="none" x="61.5936279296875" y="194.5">springdata</text></g></g><g transform="translate(-10,-10) scale(1,1)"><rect fill="#C0C0C0" stroke="none" x="27" y="237" width="19.6" height="15" opacity="0.2"/></g><g transform="translate(-10,-10) scale(1,1)"><rect fill="#C0C0C0" stroke="none" x="27" y="251" width="49" height="25" opacity="0.2"/></g><g transform="translate(-10,-10) scale(1,1)"><rect fill="#ffffff" stroke="none" x="20" y="245" width="49" height="24"/></g><g transform="translate(-10,-10) scale(1,1)"><path fill="none" stroke="#000000" d="M 20 245 L 69 245 L 69 269 L 20 269 L 20 245 Z Z" stroke-miterlimit="10"/></g><g transform="translate(-10,-10) scale(1,1)"><rect fill="#ffffff" stroke="none" x="20" y="230" width="19.6" height="15"/></g><g transform="translate(-10,-10) scale(1,1)"><path fill="none" stroke="#000000" d="M 20 230 L 39.6 230 L 39.6 245 L 20 245 L 20 230 Z Z" stroke-miterlimit="10"/></g><g transform="translate(-10,-10) scale(1,1)"><rect fill="#ffffff" stroke="none" x="20" y="244" width="49" height="25"/></g><g transform="translate(-10,-10) scale(1,1)"><path fill="none" stroke="#000000" d="M 20 244 L 69 244 L 69 269 L 20 269 L 20 244 Z Z" stroke-miterlimit="10"/></g><g transform="translate(-10,-10) scale(1,1)"><g><path fill="none" stroke="none"/><text fill="#000000" stroke="none" font-family="Arial" font-size="13px" font-style="normal" font-weight="bold" text-decoration="none" x="33.305908203125" y="264.5">orm</text></g></g><g transform="translate(-10,-10) scale(1,1)"><rect fill="#C0C0C0" stroke="none" x="107" y="237" width="29.028710937499994" height="15" opacity="0.2"/></g><g transform="translate(-10,-10) scale(1,1)"><rect fill="#C0C0C0" stroke="none" x="107" y="251" width="72.57177734375" height="25" opacity="0.2"/></g><g transform="translate(-10,-10) scale(1,1)"><rect fill="#ffffff" stroke="none" x="100" y="245" width="72.57177734375" height="24"/></g><g transform="translate(-10,-10) scale(1,1)"><path fill="none" stroke="#000000" d="M 100 245 L 172.57177734375 245 L 172.57177734375 269 L 100 269 L 100 245 Z Z" stroke-miterlimit="10"/></g><g transform="translate(-10,-10) scale(1,1)"><rect fill="#ffffff" stroke="none" x="100" y="230" width="29.028710937499994" height="15"/></g><g transform="translate(-10,-10) scale(1,1)"><path fill="none" stroke="#000000" d="M 100 230 L 129.0287109375 230 L 129.0287109375 245 L 100 245 L 100 230 Z Z" stroke-miterlimit="10"/></g><g transform="translate(-10,-10) scale(1,1)"><rect fill="#ffffff" stroke="none" x="100" y="244" width="72.57177734375" height="25"/></g><g transform="translate(-10,-10) scale(1,1)"><path fill="none" stroke="#000000" d="M 100 244 L 172.57177734375 244 L 172.57177734375 269 L 100 269 L 100 244 Z Z" stroke-miterlimit="10"/></g><g transform="translate(-10,-10) scale(1,1)"><g><path fill="none" stroke="none"/><text fill="#000000" stroke="none" font-family="Arial" font-size="13px" font-style="normal" font-weight="bold" text-decoration="none" x="107.746826171875" y="264.5">repository</text></g></g><g transform="translate(-10,-10) scale(1,1)"><path fill="none" stroke="#000000" d="M 90 89 Q 89 75 89 60" stroke-miterlimit="10"/></g><g transform="translate(-10,-10) scale(1,1)"><path fill="#FFFFFF" stroke="none" d="M 82 67 C 82 63.1340064 85.1340064 60 89 60 C 92.8659936 60 96 63.1340064 96 67 C 96 70.8659936 92.8659936 74 89 74 C 85.1340064 74 82 70.8659936 82 67 Z"/></g><g transform="translate(-10,-10) scale(1,1)"><path fill="none" stroke="#000000" d="M 82 67 C 82 63.1340064 85.1340064 60 89 60 C 92.8659936 60 96 63.1340064 96 67 C 96 70.8659936 92.8659936 74 89 74 C 85.1340064 74 82 70.8659936 82 67 Z" stroke-miterlimit="10"/></g><g transform="translate(-10,-10) scale(1,1)"><path fill="none" stroke="#000000" d="M 89 74 L 89 60" stroke-miterlimit="10"/></g><g transform="translate(-10,-10) scale(1,1)"><path fill="none" stroke="#000000" d="M 96 67 L 82 67" stroke-miterlimit="10"/></g><g transform="translate(-10,-10) scale(1,1)"><path fill="none" stroke="#000000" d="M 90 159 Q 89 145 90 130" stroke-miterlimit="10"/></g><g transform="translate(-10,-10) scale(1,1)"><path fill="#FFFFFF" stroke="none" d="M 82.53436692633359 136.98449610499625 C 82.53436692633359 133.11850250499626 85.6683733263336 129.98449610499625 89.53436692633359 129.98449610499625 C 93.40036052633359 129.98449610499625 96.53436692633359 133.11850250499626 96.53436692633359 136.98449610499625 C 96.53436692633359 140.85048970499625 93.40036052633359 143.98449610499625 89.53436692633359 143.98449610499625 C 85.6683733263336 143.98449610499625 82.53436692633359 140.85048970499625 82.53436692633359 136.98449610499625 Z"/></g><g transform="translate(-10,-10) scale(1,1)"><path fill="none" stroke="#000000" d="M 82.53436692633359 136.98449610499625 C 82.53436692633359 133.11850250499626 85.6683733263336 129.98449610499625 89.53436692633359 129.98449610499625 C 93.40036052633359 129.98449610499625 96.53436692633359 133.11850250499626 96.53436692633359 136.98449610499625 C 96.53436692633359 140.85048970499625 93.40036052633359 143.98449610499625 89.53436692633359 143.98449610499625 C 85.6683733263336 143.98449610499625 82.53436692633359 140.85048970499625 82.53436692633359 136.98449610499625 Z" stroke-miterlimit="10"/></g><g transform="translate(-10,-10) scale(1,1)"><path fill="none" stroke="#000000" d="M 89.06873385266717 143.96899220999254 L 90 130" stroke-miterlimit="10"/></g><g transform="translate(-10,-10) scale(1,1)"><path fill="none" stroke="#000000" d="M 96.51886303132986 137.45012917866268 L 82.54987082133732 136.51886303132983" stroke-miterlimit="10"/></g><g transform="translate(-10,-10) scale(1,1)"><path fill="none" stroke="#000000" d="M 45 229 Q 45 215 64 200" stroke-miterlimit="10"/></g><g transform="translate(-10,-10) scale(1,1)"><path fill="#FFFFFF" stroke="none" d="M 51.50582064126602 204.33751002005314 C 51.50582064126602 200.47151642005315 54.63982704126602 197.33751002005314 58.50582064126601 197.33751002005314 C 62.37181424126601 197.33751002005314 65.50582064126601 200.47151642005315 65.50582064126601 204.33751002005314 C 65.50582064126601 208.20350362005314 62.37181424126601 211.33751002005314 58.50582064126601 211.33751002005314 C 54.63982704126602 211.33751002005314 51.50582064126602 208.20350362005314 51.50582064126602 204.33751002005314 Z"/></g><g transform="translate(-10,-10) scale(1,1)"><path fill="none" stroke="#000000" d="M 51.50582064126602 204.33751002005314 C 51.50582064126602 200.47151642005315 54.63982704126602 197.33751002005314 58.50582064126601 197.33751002005314 C 62.37181424126601 197.33751002005314 65.50582064126601 200.47151642005315 65.50582064126601 204.33751002005314 C 65.50582064126601 208.20350362005314 62.37181424126601 211.33751002005314 58.50582064126601 211.33751002005314 C 54.63982704126602 211.33751002005314 51.50582064126602 208.20350362005314 51.50582064126602 204.33751002005314 Z" stroke-miterlimit="10"/></g><g transform="translate(-10,-10) scale(1,1)"><path fill="none" stroke="#000000" d="M 53.01164128253204 208.6750200401063 L 64 200" stroke-miterlimit="10"/></g><g transform="translate(-10,-10) scale(1,1)"><path fill="none" stroke="#000000" d="M 62.843330661319165 209.83168937878713 L 54.168310621212875 198.84333066131916" stroke-miterlimit="10"/></g><g transform="translate(-10,-10) scale(1,1)"><path fill="none" stroke="#000000" d="M 134 229 Q 133 215 116 200" stroke-miterlimit="10"/></g><g transform="translate(-10,-10) scale(1,1)"><path fill="#FFFFFF" stroke="none" d="M 114.24886498755565 204.6313514596079 C 114.24886498755565 200.76535785960792 117.38287138755564 197.6313514596079 121.24886498755563 197.6313514596079 C 125.11485858755563 197.6313514596079 128.24886498755563 200.76535785960792 128.24886498755563 204.6313514596079 C 128.24886498755563 208.4973450596079 125.11485858755563 211.6313514596079 121.24886498755563 211.6313514596079 C 117.38287138755564 211.6313514596079 114.24886498755565 208.4973450596079 114.24886498755565 204.6313514596079 Z"/></g><g transform="translate(-10,-10) scale(1,1)"><path fill="none" stroke="#000000" d="M 114.24886498755565 204.6313514596079 C 114.24886498755565 200.76535785960792 117.38287138755564 197.6313514596079 121.24886498755563 197.6313514596079 C 125.11485858755563 197.6313514596079 128.24886498755563 200.76535785960792 128.24886498755563 204.6313514596079 C 128.24886498755563 208.4973450596079 125.11485858755563 211.6313514596079 121.24886498755563 211.6313514596079 C 117.38287138755564 211.6313514596079 114.24886498755565 208.4973450596079 114.24886498755565 204.6313514596079 Z" stroke-miterlimit="10"/></g><g transform="translate(-10,-10) scale(1,1)"><path fill="none" stroke="#000000" d="M 126.4977299751113 209.26270291921585 L 116 200" stroke-miterlimit="10"/></g><g transform="translate(-10,-10) scale(1,1)"><path fill="none" stroke="#000000" d="M 125.88021644716358 199.38248647205228 L 116.61751352794772 209.88021644716355" stroke-miterlimit="10"/></g></g></svg>