<svg version="1.1" xmlns="http://www.w3.org/2000/svg" xmlns:xlink="http://www.w3.org/1999/xlink" width="491.53515625" height="68"><defs/><g><text fill="#eeeeee" stroke="none" font-family="Arial" font-size="24px" font-style="normal" font-weight="normal" text-decoration="none" x="0" y="0">UNREGISTERED</text><text fill="#eeeeee" stroke="none" font-family="Arial" font-size="24px" font-style="normal" font-weight="normal" text-decoration="none" x="0" y="30">UNREGISTERED</text><text fill="#eeeeee" stroke="none" font-family="Arial" font-size="24px" font-style="normal" font-weight="normal" text-decoration="none" x="0" y="60">UNREGISTERED</text><text fill="#eeeeee" stroke="none" font-family="Arial" font-size="24px" font-style="normal" font-weight="normal" text-decoration="none" x="200" y="0">UNREGISTERED</text><text fill="#eeeeee" stroke="none" font-family="Arial" font-size="24px" font-style="normal" font-weight="normal" text-decoration="none" x="200" y="30">UNREGISTERED</text><text fill="#eeeeee" stroke="none" font-family="Arial" font-size="24px" font-style="normal" font-weight="normal" text-decoration="none" x="200" y="60">UNREGISTERED</text><text fill="#eeeeee" stroke="none" font-family="Arial" font-size="24px" font-style="normal" font-weight="normal" text-decoration="none" x="400" y="0">UNREGISTERED</text><text fill="#eeeeee" stroke="none" font-family="Arial" font-size="24px" font-style="normal" font-weight="normal" text-decoration="none" x="400" y="30">UNREGISTERED</text><text fill="#eeeeee" stroke="none" font-family="Arial" font-size="24px" font-style="normal" font-weight="normal" text-decoration="none" x="400" y="60">UNREGISTERED</text><g transform="translate(-10,-10) scale(1,1)"><path fill="#C0C0C0" stroke="none" d="M 72.72998046875 38.5 C 72.72998046875 32.1487248 77.87870526875 27 84.22998046875 27 C 90.58125566875 27 95.72998046875 32.1487248 95.72998046875 38.5 C 95.72998046875 44.8512752 90.58125566875 50 84.22998046875 50 C 77.87870526875 50 72.72998046875 44.8512752 72.72998046875 38.5 Z" opacity="0.2"/></g><g transform="translate(-10,-10) scale(1,1)"><path fill="#ffffff" stroke="none" d="M 65.72998046875 31.5 C 65.72998046875 25.1487248 70.87870526875 20 77.22998046875 20 C 83.58125566875 20 88.72998046875 25.1487248 88.72998046875 31.5 C 88.72998046875 37.8512752 83.58125566875 43 77.22998046875 43 C 70.87870526875 43 65.72998046875 37.8512752 65.72998046875 31.5 Z"/></g><g transform="translate(-10,-10) scale(1,1)"><path fill="none" stroke="#000000" d="M 65.72998046875 31.5 C 65.72998046875 25.1487248 70.87870526875 20 77.22998046875 20 C 83.58125566875 20 88.72998046875 25.1487248 88.72998046875 31.5 C 88.72998046875 37.8512752 83.58125566875 43 77.22998046875 43 C 70.87870526875 43 65.72998046875 37.8512752 65.72998046875 31.5 Z" stroke-miterlimit="10"/></g><g transform="translate(-10,-10) scale(1,1)"><g><path fill="none" stroke="none"/><text fill="#000000" stroke="none" font-family="Arial" font-size="13px" font-style="normal" font-weight="bold" text-decoration="none" x="28.457763671875" y="62.5">CargoRepository</text></g></g><g transform="translate(-10,-10) scale(1,1)"><path fill="#C0C0C0" stroke="none" d="M 226.4609375 38.5 C 226.4609375 32.1487248 231.6096623 27 237.9609375 27 C 244.3122127 27 249.4609375 32.1487248 249.4609375 38.5 C 249.4609375 44.8512752 244.3122127 50 237.9609375 50 C 231.6096623 50 226.4609375 44.8512752 226.4609375 38.5 Z" opacity="0.2"/></g><g transform="translate(-10,-10) scale(1,1)"><path fill="#ffffff" stroke="none" d="M 219.4609375 31.5 C 219.4609375 25.1487248 224.6096623 20 230.9609375 20 C 237.3122127 20 242.4609375 25.1487248 242.4609375 31.5 C 242.4609375 37.8512752 237.3122127 43 230.9609375 43 C 224.6096623 43 219.4609375 37.8512752 219.4609375 31.5 Z"/></g><g transform="translate(-10,-10) scale(1,1)"><path fill="none" stroke="#000000" d="M 219.4609375 31.5 C 219.4609375 25.1487248 224.6096623 20 230.9609375 20 C 237.3122127 20 242.4609375 25.1487248 242.4609375 31.5 C 242.4609375 37.8512752 237.3122127 43 230.9609375 43 C 224.6096623 43 219.4609375 37.8512752 219.4609375 31.5 Z" stroke-miterlimit="10"/></g><g transform="translate(-10,-10) scale(1,1)"><g><path fill="none" stroke="none"/><text fill="#000000" stroke="none" font-family="Arial" font-size="13px" font-style="normal" font-weight="bold" text-decoration="none" x="165.92919921875" y="62.5">FuncionarioRepository</text></g></g><g transform="translate(-10,-10) scale(1,1)"><path fill="#C0C0C0" stroke="none" d="M 410.549560546875 38.5 C 410.549560546875 32.1487248 415.698285346875 27 422.049560546875 27 C 428.400835746875 27 433.549560546875 32.1487248 433.549560546875 38.5 C 433.549560546875 44.8512752 428.400835746875 50 422.049560546875 50 C 415.698285346875 50 410.549560546875 44.8512752 410.549560546875 38.5 Z" opacity="0.2"/></g><g transform="translate(-10,-10) scale(1,1)"><path fill="#ffffff" stroke="none" d="M 403.549560546875 31.5 C 403.549560546875 25.1487248 408.698285346875 20 415.049560546875 20 C 421.400835746875 20 426.549560546875 25.1487248 426.549560546875 31.5 C 426.549560546875 37.8512752 421.400835746875 43 415.049560546875 43 C 408.698285346875 43 403.549560546875 37.8512752 403.549560546875 31.5 Z"/></g><g transform="translate(-10,-10) scale(1,1)"><path fill="none" stroke="#000000" d="M 403.549560546875 31.5 C 403.549560546875 25.1487248 408.698285346875 20 415.049560546875 20 C 421.400835746875 20 426.549560546875 25.1487248 426.549560546875 31.5 C 426.549560546875 37.8512752 421.400835746875 43 415.049560546875 43 C 408.698285346875 43 403.549560546875 37.8512752 403.549560546875 31.5 Z" stroke-miterlimit="10"/></g><g transform="translate(-10,-10) scale(1,1)"><g><path fill="none" stroke="none"/><text fill="#000000" stroke="none" font-family="Arial" font-size="13px" font-style="normal" font-weight="bold" text-decoration="none" x="334.35498046875" y="62.5">UnidadeTrabalhoRepository</text></g></g></g></svg>