<svg version="1.1" xmlns="http://www.w3.org/2000/svg" xmlns:xlink="http://www.w3.org/1999/xlink" width="294.07275390625" height="178"><defs/><g><text fill="#eeeeee" stroke="none" font-family="Arial" font-size="24px" font-style="normal" font-weight="normal" text-decoration="none" x="0" y="0">UNREGISTERED</text><text fill="#eeeeee" stroke="none" font-family="Arial" font-size="24px" font-style="normal" font-weight="normal" text-decoration="none" x="0" y="30">UNREGISTERED</text><text fill="#eeeeee" stroke="none" font-family="Arial" font-size="24px" font-style="normal" font-weight="normal" text-decoration="none" x="0" y="60">UNREGISTERED</text><text fill="#eeeeee" stroke="none" font-family="Arial" font-size="24px" font-style="normal" font-weight="normal" text-decoration="none" x="0" y="90">UNREGISTERED</text><text fill="#eeeeee" stroke="none" font-family="Arial" font-size="24px" font-style="normal" font-weight="normal" text-decoration="none" x="0" y="120">UNREGISTERED</text><text fill="#eeeeee" stroke="none" font-family="Arial" font-size="24px" font-style="normal" font-weight="normal" text-decoration="none" x="0" y="150">UNREGISTERED</text><text fill="#eeeeee" stroke="none" font-family="Arial" font-size="24px" font-style="normal" font-weight="normal" text-decoration="none" x="200" y="0">UNREGISTERED</text><text fill="#eeeeee" stroke="none" font-family="Arial" font-size="24px" font-style="normal" font-weight="normal" text-decoration="none" x="200" y="30">UNREGISTERED</text><text fill="#eeeeee" stroke="none" font-family="Arial" font-size="24px" font-style="normal" font-weight="normal" text-decoration="none" x="200" y="60">UNREGISTERED</text><text fill="#eeeeee" stroke="none" font-family="Arial" font-size="24px" font-style="normal" font-weight="normal" text-decoration="none" x="200" y="90">UNREGISTERED</text><text fill="#eeeeee" stroke="none" font-family="Arial" font-size="24px" font-style="normal" font-weight="normal" text-decoration="none" x="200" y="120">UNREGISTERED</text><text fill="#eeeeee" stroke="none" font-family="Arial" font-size="24px" font-style="normal" font-weight="normal" text-decoration="none" x="200" y="150">UNREGISTERED</text><g transform="translate(32,-10) scale(1,1)"><rect fill="#C0C0C0" stroke="none" x="58.6748046875" y="39" width="46.55908203125" height="24" opacity="0.2"/></g><g transform="translate(32,-10) scale(1,1)"><rect fill="#ffffff" stroke="none" x="51.6748046875" y="32" width="46.55908203125" height="24"/></g><g transform="translate(32,-10) scale(1,1)"><path fill="none" stroke="#000000" d="M 51.6748046875 32 L 98.23388671875 32 L 98.23388671875 56 L 51.6748046875 56 L 51.6748046875 32 Z Z" stroke-miterlimit="10"/></g><g transform="translate(32,-10) scale(1,1)"><g><path fill="none" stroke="none"/><text fill="#000000" stroke="none" font-family="Arial" font-size="13px" font-style="normal" font-weight="bold" text-decoration="none" x="57.250732421875" y="51.5">Cargo</text></g></g><g transform="translate(32,-10) scale(1,1)"><rect fill="#C0C0C0" stroke="none" x="42.056640625" y="106" width="83.38818359375" height="24" opacity="0.2"/></g><g transform="translate(32,-10) scale(1,1)"><rect fill="#ffffff" stroke="none" x="35.056640625" y="99" width="83.38818359375" height="24"/></g><g transform="translate(32,-10) scale(1,1)"><path fill="none" stroke="#000000" d="M 35.056640625 99 L 118.44482421875 99 L 118.44482421875 123 L 35.056640625 123 L 35.056640625 99 Z Z" stroke-miterlimit="10"/></g><g transform="translate(32,-10) scale(1,1)"><g><path fill="none" stroke="none"/><text fill="#000000" stroke="none" font-family="Arial" font-size="13px" font-style="normal" font-weight="bold" text-decoration="none" x="42.78759765625" y="118.5">Funcionario</text></g></g><g transform="translate(32,-10) scale(1,1)"><path fill="#C0C0C0" stroke="none" d="M 190.98388671875 38.5 C 190.98388671875 32.1487248 196.13261151875 27 202.48388671875 27 C 208.83516191875 27 213.98388671875 32.1487248 213.98388671875 38.5 C 213.98388671875 44.8512752 208.83516191875 50 202.48388671875 50 C 196.13261151875 50 190.98388671875 44.8512752 190.98388671875 38.5 Z" opacity="0.2"/></g><g transform="translate(32,-10) scale(1,1)"><path fill="#ffffff" stroke="none" d="M 183.98388671875 31.5 C 183.98388671875 25.1487248 189.13261151875 20 195.48388671875 20 C 201.83516191875 20 206.98388671875 25.1487248 206.98388671875 31.5 C 206.98388671875 37.8512752 201.83516191875 43 195.48388671875 43 C 189.13261151875 43 183.98388671875 37.8512752 183.98388671875 31.5 Z"/></g><g transform="translate(32,-10) scale(1,1)"><path fill="none" stroke="#000000" d="M 183.98388671875 31.5 C 183.98388671875 25.1487248 189.13261151875 20 195.48388671875 20 C 201.83516191875 20 206.98388671875 25.1487248 206.98388671875 31.5 C 206.98388671875 37.8512752 201.83516191875 43 195.48388671875 43 C 189.13261151875 43 183.98388671875 37.8512752 183.98388671875 31.5 Z" stroke-miterlimit="10"/></g><g transform="translate(32,-10) scale(1,1)"><g><path fill="none" stroke="none"/><text fill="#000000" stroke="none" font-family="Arial" font-size="13px" font-style="normal" font-weight="bold" text-decoration="none" x="135.86669921875" y="62.5">FuncionarioProjecao</text></g></g><g transform="translate(32,-10) scale(1,1)"><rect fill="#C0C0C0" stroke="none" x="27" y="161" width="114.4599609375" height="24" opacity="0.2"/></g><g transform="translate(32,-10) scale(1,1)"><rect fill="#ffffff" stroke="none" x="20" y="154" width="114.4599609375" height="24"/></g><g transform="translate(32,-10) scale(1,1)"><path fill="none" stroke="#000000" d="M 20 154 L 134.4599609375 154 L 134.4599609375 178 L 20 178 L 20 154 Z Z" stroke-miterlimit="10"/></g><g transform="translate(32,-10) scale(1,1)"><g><path fill="none" stroke="none"/><text fill="#000000" stroke="none" font-family="Arial" font-size="13px" font-style="normal" font-weight="bold" text-decoration="none" x="27.60400390625" y="173.5">UnidadeTrabalho</text></g></g><g transform="translate(32,-10) scale(1,1)"><path fill="none" stroke="#000000" d="M 79 57 Q 79 57 84 70.5 Q 89 84 82 98" stroke-miterlimit="10"/></g><g transform="translate(32,-10) scale(1,1)"><path fill="none" stroke="#000000" d="M 82.77977922099747 87.02767370306094 L 82 98 L 90.30999350495277 90.79278084503858" stroke-miterlimit="10"/></g><g transform="translate(32,-10) scale(1,1)"><g><path fill="none" stroke="none"/><text fill="#000000" stroke="none" font-family="Arial" font-size="13px" font-style="normal" font-weight="normal" text-decoration="none" x="73.5" y="87.5">-funcionario</text></g></g><g transform="translate(32,-10) scale(1,1)"><g><path fill="none" stroke="none"/><text fill="#000000" stroke="none" font-family="Arial" font-size="13px" font-style="normal" font-weight="normal" text-decoration="none" x="69.487060546875" y="91.5">{collection="List"}</text></g></g><g transform="translate(32,-10) scale(1,1)"><g><path fill="none" stroke="none"/><text fill="#000000" stroke="none" font-family="Arial" font-size="13px" font-style="normal" font-weight="normal" text-decoration="none" x="77.220458984375" y="79.5">*</text></g></g><g transform="translate(32,-10) scale(1,1)"><path fill="none" stroke="#000000" d="M 68 98 Q 59 84 69 57" stroke-miterlimit="10"/></g><g transform="translate(32,-10) scale(1,1)"><path fill="none" stroke="#000000" d="M 69.41782718732806 67.99206170113366 L 69 57 L 61.52288706943122 65.06800980561633" stroke-miterlimit="10"/></g><g transform="translate(32,-10) scale(1,1)"><g><path fill="none" stroke="none"/><text fill="#000000" stroke="none" font-family="Arial" font-size="13px" font-style="normal" font-weight="normal" text-decoration="none" x="26.5" y="82.5">-cargo</text></g></g><g transform="translate(32,-10) scale(1,1)"><path fill="none" stroke="#000000" d="M 81 124 Q 81 124 85 131.5 Q 89 139 83 153" stroke-miterlimit="10"/></g><g transform="translate(32,-10) scale(1,1)"><path fill="none" stroke="#000000" d="M 83.13411642738859 142.0008176311189 L 83 153 L 90.87243107581831 145.31723819473166" stroke-miterlimit="10"/></g><g transform="translate(32,-10) scale(1,1)"><g><path fill="none" stroke="none"/><text fill="#000000" stroke="none" font-family="Arial" font-size="13px" font-style="normal" font-weight="normal" text-decoration="none" x="53.5" y="141.5">-unidadeTrabalhos</text></g></g><g transform="translate(32,-10) scale(1,1)"><g><path fill="none" stroke="none"/><text fill="#000000" stroke="none" font-family="Arial" font-size="13px" font-style="normal" font-weight="normal" text-decoration="none" x="70.487060546875" y="144.5">{collection="List"}</text></g></g><g transform="translate(32,-10) scale(1,1)"><g><path fill="none" stroke="none"/><text fill="#000000" stroke="none" font-family="Arial" font-size="13px" font-style="normal" font-weight="normal" text-decoration="none" x="77.220458984375" y="134.5">*</text></g></g><g transform="translate(32,-10) scale(1,1)"><path fill="none" stroke="#000000" d="M 68 153 Q 59 139 68 124" stroke-miterlimit="10"/></g><g transform="translate(32,-10) scale(1,1)"><path fill="none" stroke="#000000" d="M 66.38097861840738 134.8802008145965 L 68 124 L 59.16171522551728 130.54864277886242" stroke-miterlimit="10"/></g><g transform="translate(32,-10) scale(1,1)"><g><path fill="none" stroke="none"/><text fill="#000000" stroke="none" font-family="Arial" font-size="13px" font-style="normal" font-weight="normal" text-decoration="none" x="3.5" y="144.5">-funcionarios</text></g></g><g transform="translate(32,-10) scale(1,1)"><g><path fill="none" stroke="none"/><text fill="#000000" stroke="none" font-family="Arial" font-size="13px" font-style="normal" font-weight="normal" text-decoration="none" x="-20.512939453125" y="139.5">{collection="List"}</text></g></g><g transform="translate(32,-10) scale(1,1)"><g><path fill="none" stroke="none"/><text fill="#000000" stroke="none" font-family="Arial" font-size="13px" font-style="normal" font-weight="normal" text-decoration="none" x="64.220458984375" y="154.5">*</text></g></g></g></svg>